<svg width="126.000000" height="48.000000" viewBox="0 0 126 48" fill="none" xmlns="http://www.w3.org/2000/svg" xmlns:xlink="http://www.w3.org/1999/xlink">
	<desc>
			Created with Pixso.
	</desc>
	<defs>
		<clipPath id="clip12_136">
			<rect id="rocket" rx="0.000000" width="21.000000" height="35.000000" transform="translate(0.500000 10.500000)" fill="white" fill-opacity="0"/>
		</clipPath>
	</defs>
	<path id="todo" d="M90.93 35.41C90.02 37.63 87.92 39.28 84.84 39.28C80.19 39.28 76.27 35.65 76.27 28.09C76.27 20.19 80.47 16.9 84.79 16.9C88.03 16.9 90.08 18.77 90.93 20.99L91.04 20.99L91.04 9.9L98.88 9.9L98.88 39L91.09 39L91.09 35.41L90.93 35.41ZM124.57 28.15C124.57 34.84 120.36 39.4 113.26 39.4C106.16 39.4 101.95 34.84 101.95 28.15C101.95 21.44 106.16 16.9 113.26 16.9C120.36 16.9 124.57 21.44 124.57 28.15ZM109.97 28.09C109.97 31.5 111.22 33.59 113.32 33.59C115.3 33.59 116.55 31.5 116.55 28.09C116.55 24.66 115.3 22.58 113.32 22.58C111.22 22.58 109.97 24.66 109.97 28.09ZM84.34 28.09C84.34 31.33 85.59 33.25 87.74 33.25C89.9 33.25 91.21 31.27 91.21 28.09C91.21 24.84 89.9 22.91 87.74 22.91C85.59 22.91 84.34 24.84 84.34 28.09Z" fill="#5E60CE" fill-opacity="1.000000" fill-rule="evenodd"/>
	<path id="todo" d="M45.25 17.18L49 17.18L49 22.86L45.25 22.86L45.25 31.97C45.25 32.89 45.7 33.34 46.72 33.34C47.19 33.34 47.96 33.18 48.25 33.12L49.4 38.62C48.68 38.84 47.36 39.21 45.59 39.31C40.18 39.61 37.34 37.29 37.4 32.72L37.4 22.86L34.62 22.86L34.62 17.18L37.4 17.18L37.4 11.95L45.25 11.95L45.25 17.18ZM73.77 28.15C73.77 34.84 69.56 39.4 62.46 39.4C55.36 39.4 51.15 34.84 51.15 28.15C51.15 21.44 55.36 16.9 62.46 16.9C69.56 16.9 73.77 21.44 73.77 28.15ZM59.17 28.09C59.17 31.5 60.42 33.59 62.52 33.59C64.5 33.59 65.75 31.5 65.75 28.09C65.75 24.66 64.5 22.58 62.52 22.58C60.42 22.58 59.17 24.66 59.17 28.09Z" fill="#4EA8DE" fill-opacity="1.000000" fill-rule="evenodd"/>
	<rect id="rocket" rx="0.000000" width="21.000000" height="35.000000" transform="translate(0.500000 10.500000)" fill="#FFFFFF" fill-opacity="0"/>
	<g clip-path="url(#clip12_136)">
		<path id="Vector" d="M11.02 12.93C14.14 16.9 15.81 21.79 15.75 26.81L15.75 28.01L16.78 28.64C18.11 29.44 19.11 30.69 19.58 32.16C19.17 31.86 18.73 31.58 18.28 31.32L15.53 29.78L15.03 32.9C14.99 33.17 14.93 33.44 14.86 33.71L7.16 33.71C7.04 33.36 6.95 33.01 6.86 32.64L6.24 29.82L3.7 31.23C3.28 31.47 2.87 31.73 2.48 32.01C2.96 30.56 3.94 29.32 5.24 28.49L6.22 27.86L6.22 26.75C6.24 21.75 7.92 16.89 11.02 12.93L11.02 12.93ZM11.02 10C10.86 10 10.71 10.05 10.59 10.16L10.52 10.21C6.39 14.76 4.1 20.64 4.08 26.74C2.32 27.86 1.03 29.55 0.41 31.51C-0.2 33.48 -0.1 35.6 0.71 37.49C1.56 35.64 2.99 34.1 4.78 33.09C4.96 33.86 5.2 34.61 5.5 35.34C5.53 35.48 5.62 35.61 5.73 35.7C5.85 35.78 5.99 35.83 6.14 35.84L16.08 35.84C16.28 35.84 16.48 35.64 16.58 35.35C16.87 34.65 17.07 33.93 17.18 33.18C18.98 34.19 20.4 35.73 21.25 37.58C22.11 35.7 22.24 33.57 21.62 31.59C21.01 29.62 19.68 27.93 17.9 26.84C17.97 20.7 15.69 14.77 11.51 10.21C11.45 10.15 11.37 10.09 11.29 10.05C11.2 10.01 11.11 10 11.02 10L11.02 10Z" fill="#4EA8DE" fill-opacity="1.000000" fill-rule="nonzero"/>
		<path id="Vector" d="M11.02 26.15C10.47 26.15 9.93 25.99 9.47 25.69C9.01 25.39 8.66 24.97 8.44 24.47C8.23 23.97 8.18 23.42 8.28 22.88C8.39 22.35 8.65 21.86 9.04 21.48C9.43 21.1 9.92 20.83 10.46 20.72C11 20.62 11.56 20.67 12.07 20.87C12.58 21.08 13.01 21.42 13.32 21.87C13.63 22.32 13.8 22.85 13.8 23.39C13.81 23.74 13.75 24.09 13.62 24.42C13.49 24.75 13.3 25.05 13.05 25.3C12.81 25.55 12.51 25.76 12.19 25.9C11.86 26.04 11.51 26.12 11.15 26.13C11.11 26.13 11.06 26.13 11.02 26.13L11.02 26.15Z" fill="#4EA8DE" fill-opacity="1.000000" fill-rule="nonzero"/>
		<path id="Path 3417" d="M14.89 37.59C14.71 37.59 14.53 37.61 14.37 37.68C14.2 37.74 14.05 37.84 13.92 37.96C13.79 38.08 13.68 38.23 13.61 38.39C13.54 38.55 13.5 38.73 13.5 38.9L13.5 43.06C13.5 43.42 13.65 43.77 13.91 44.03C14.17 44.29 14.52 44.43 14.89 44.43C15.26 44.43 15.61 44.29 15.87 44.03C16.13 43.77 16.28 43.42 16.28 43.06L16.28 38.96C16.29 38.78 16.26 38.61 16.19 38.44C16.13 38.28 16.03 38.13 15.91 38C15.79 37.87 15.64 37.77 15.47 37.7C15.31 37.63 15.13 37.59 14.96 37.59L14.89 37.59Z" fill="#5E60CE" fill-opacity="1.000000" fill-rule="nonzero"/>
		<path id="Path 3418" d="M7.16 37.59C6.97 37.58 6.79 37.61 6.62 37.67C6.45 37.73 6.29 37.83 6.16 37.95C6.02 38.07 5.92 38.22 5.84 38.38C5.77 38.55 5.73 38.72 5.72 38.9L5.72 43.06C5.72 43.42 5.87 43.77 6.13 44.03C6.39 44.29 6.75 44.43 7.11 44.43C7.48 44.43 7.84 44.29 8.1 44.03C8.36 43.77 8.5 43.42 8.5 43.06L8.5 38.96C8.51 38.78 8.48 38.61 8.41 38.44C8.35 38.28 8.26 38.13 8.13 38C8.01 37.87 7.86 37.77 7.7 37.7C7.53 37.63 7.36 37.59 7.18 37.59L7.16 37.59Z" fill="#5E60CE" fill-opacity="1.000000" fill-rule="nonzero"/>
		<path id="Path 3419" d="M10.92 37.59C10.74 37.59 10.56 37.62 10.39 37.68C10.23 37.75 10.07 37.84 9.95 37.96C9.82 38.08 9.71 38.23 9.64 38.39C9.57 38.55 9.53 38.73 9.53 38.9L9.53 44.63C9.53 45 9.67 45.34 9.93 45.6C10.19 45.86 10.55 46 10.92 46C11.28 46 11.64 45.86 11.9 45.6C12.16 45.34 12.31 45 12.31 44.63L12.31 38.99C12.31 38.82 12.28 38.64 12.22 38.48C12.15 38.31 12.06 38.16 11.93 38.04C11.81 37.91 11.66 37.81 11.5 37.74C11.34 37.67 11.16 37.63 10.98 37.63L10.92 37.59Z" fill="#5E60CE" fill-opacity="1.000000" fill-rule="nonzero"/>
	</g>
</svg>
